<?xml version="1.0" encoding="UTF-8"?>
<svg width="1024px" height="1024px" viewBox="0 0 1024 1024" version="1.1" xmlns="http://www.w3.org/2000/svg" xmlns:xlink="http://www.w3.org/1999/xlink">
    <title>Group</title>
    <g id="Page-1" stroke="none" stroke-width="1" fill="none" fill-rule="evenodd">
        <g id="Group">
            <rect id="Rectangle" stroke="#979797" fill="#D8D8D8" opacity="0" x="0.5" y="0.5" width="1023" height="1023"></rect>
            <g id="shield" transform="translate(144.000000, 62.000000)" fill="#FF5722">
                <path d="M180.382561,82.3953678 L1.63569482,162.210899 L0.345776567,292.414169 C-1.07166213,435.548501 2.93051771,488.555313 19.4542234,545.581471 C67.3209809,710.754768 193.340599,846.228065 339.984196,890.153951 L368.796458,898.783651 L403.391281,887.176839 C469.83188,864.882834 529.300545,827.038692 581.392643,773.897003 L607.473025,747.291826 L544.132153,683.950954 L480.791281,620.610082 L450.478202,634.963488 C403.447684,657.23297 330.589373,656.600272 282.83297,633.506812 C89.2250681,539.884741 145.500817,254.63624 359.126975,246.781471 C512.480109,241.143597 617.917439,395.176022 553.936512,531.375204 L539.708174,561.661308 L597.352316,619.425613 C629.058311,651.195368 656.656676,676.162398 658.684741,674.909264 C666.014714,670.379837 700.575204,596.199728 711.522343,561.50436 C732.035967,496.483651 736.614441,445.465668 735.273025,296.776839 L734.059128,162.218256 L553.66921,82.0618529 C454.453406,37.9765668 370.093733,2.05749319 366.20436,2.24314718 C362.312534,2.42779292 278.691008,38.4964578 180.382561,82.3953678 M317.712262,337.943869 C199.39782,391.438692 237.904087,568.579292 367.847411,568.579292 C438.83951,568.579292 487.476294,519.920436 487.59915,448.773842 C487.723978,377.813624 438.962125,329.073842 367.847411,329.073842 C346.490191,329.073842 331.440327,331.737057 317.712262,337.943869" id="path0"></path>
            </g>
        </g>
    </g>
</svg>